<mxfile host="Electron" modified="2023-09-02T07:38:52.792Z" agent="Mozilla/5.0 (Macintosh; Intel Mac OS X 10_15_7) AppleWebKit/537.36 (KHTML, like Gecko) draw.io/21.2.1 Chrome/112.0.5615.87 Electron/24.1.2 Safari/537.36" etag="AV2XwZzu4dspG1P8zJ3P" version="21.2.1" type="device" pages="2">
  <diagram name="ページ1" id="igj02TmAoY4Bnot_ovFB">
    <mxGraphModel dx="1194" dy="1843" grid="1" gridSize="10" guides="1" tooltips="1" connect="1" arrows="1" fold="1" page="1" pageScale="1" pageWidth="827" pageHeight="1169" math="0" shadow="0">
      <root>
        <mxCell id="0" />
        <mxCell id="1" parent="0" />
        <mxCell id="EEhwz7VArtqCITe4Tplz-1" value="" style="rounded=0;whiteSpace=wrap;html=1;" parent="1" vertex="1">
          <mxGeometry x="90" y="-510" width="240" height="170" as="geometry" />
        </mxCell>
        <mxCell id="_-Awk-GLsvXbPv-UONSr-7" value="" style="rounded=0;whiteSpace=wrap;html=1;" parent="1" vertex="1">
          <mxGeometry x="510" y="-870" width="240" height="160" as="geometry" />
        </mxCell>
        <mxCell id="_-Awk-GLsvXbPv-UONSr-5" value="" style="rounded=0;whiteSpace=wrap;html=1;" parent="1" vertex="1">
          <mxGeometry x="90" y="-660" width="240" height="130" as="geometry" />
        </mxCell>
        <mxCell id="_-Awk-GLsvXbPv-UONSr-3" value="" style="rounded=0;whiteSpace=wrap;html=1;" parent="1" vertex="1">
          <mxGeometry x="90" y="-1080" width="240" height="160" as="geometry" />
        </mxCell>
        <mxCell id="_-Awk-GLsvXbPv-UONSr-1" value="" style="rounded=0;whiteSpace=wrap;html=1;" parent="1" vertex="1">
          <mxGeometry x="90" y="-870" width="240" height="160" as="geometry" />
        </mxCell>
        <mxCell id="GQ_BxSRCEvURSCjZHIDy-1" value="ユーザー&lt;br&gt;（User）" style="swimlane;fontStyle=0;childLayout=stackLayout;horizontal=1;startSize=26;fillColor=none;horizontalStack=0;resizeParent=1;resizeParentMax=0;resizeLast=0;collapsible=1;marginBottom=0;whiteSpace=wrap;html=1;align=center;" parent="1" vertex="1">
          <mxGeometry x="560" y="-850" width="140" height="130" as="geometry" />
        </mxCell>
        <mxCell id="GQ_BxSRCEvURSCjZHIDy-2" value="ユーザーID&lt;br&gt;名前&lt;br&gt;メールアドレス&lt;br&gt;ステータス&lt;br&gt;ペアID&lt;br&gt;チームID" style="text;strokeColor=none;fillColor=none;align=left;verticalAlign=top;spacingLeft=4;spacingRight=4;overflow=hidden;rotatable=0;points=[[0,0.5],[1,0.5]];portConstraint=eastwest;whiteSpace=wrap;html=1;" parent="GQ_BxSRCEvURSCjZHIDy-1" vertex="1">
          <mxGeometry y="26" width="140" height="104" as="geometry" />
        </mxCell>
        <mxCell id="GQ_BxSRCEvURSCjZHIDy-9" value="ペア&lt;br&gt;（Pair）" style="swimlane;fontStyle=0;childLayout=stackLayout;horizontal=1;startSize=26;fillColor=none;horizontalStack=0;resizeParent=1;resizeParentMax=0;resizeLast=0;collapsible=1;marginBottom=0;whiteSpace=wrap;html=1;align=center;" parent="1" vertex="1">
          <mxGeometry x="140" y="-825" width="140" height="80" as="geometry" />
        </mxCell>
        <mxCell id="GQ_BxSRCEvURSCjZHIDy-10" value="ペアID&lt;br&gt;ペア名&lt;br&gt;ユーザーID&amp;lt;List&amp;gt;" style="text;strokeColor=none;fillColor=none;align=left;verticalAlign=top;spacingLeft=4;spacingRight=4;overflow=hidden;rotatable=0;points=[[0,0.5],[1,0.5]];portConstraint=eastwest;whiteSpace=wrap;html=1;" parent="GQ_BxSRCEvURSCjZHIDy-9" vertex="1">
          <mxGeometry y="26" width="140" height="54" as="geometry" />
        </mxCell>
        <mxCell id="GQ_BxSRCEvURSCjZHIDy-11" value="チーム&lt;br&gt;（Team）" style="swimlane;fontStyle=0;childLayout=stackLayout;horizontal=1;startSize=26;fillColor=none;horizontalStack=0;resizeParent=1;resizeParentMax=0;resizeLast=0;collapsible=1;marginBottom=0;whiteSpace=wrap;html=1;align=center;" parent="1" vertex="1">
          <mxGeometry x="140" y="-1050" width="140" height="100" as="geometry" />
        </mxCell>
        <mxCell id="GQ_BxSRCEvURSCjZHIDy-12" value="チームID&lt;br&gt;チーム名&lt;br&gt;ペアID&amp;lt;List&amp;gt;&lt;br&gt;ユーザID&amp;lt;List&amp;gt;" style="text;strokeColor=none;fillColor=none;align=left;verticalAlign=top;spacingLeft=4;spacingRight=4;overflow=hidden;rotatable=0;points=[[0,0.5],[1,0.5]];portConstraint=eastwest;whiteSpace=wrap;html=1;" parent="GQ_BxSRCEvURSCjZHIDy-11" vertex="1">
          <mxGeometry y="26" width="140" height="74" as="geometry" />
        </mxCell>
        <mxCell id="GQ_BxSRCEvURSCjZHIDy-13" value="課題&lt;br&gt;（Task）" style="swimlane;fontStyle=0;childLayout=stackLayout;horizontal=1;startSize=26;fillColor=none;horizontalStack=0;resizeParent=1;resizeParentMax=0;resizeLast=0;collapsible=1;marginBottom=0;whiteSpace=wrap;html=1;align=center;" parent="1" vertex="1">
          <mxGeometry x="140" y="-640" width="140" height="90" as="geometry" />
        </mxCell>
        <mxCell id="GQ_BxSRCEvURSCjZHIDy-14" value="タスクID&lt;br&gt;分類&lt;br&gt;課題名&lt;br&gt;課題内容" style="text;strokeColor=none;fillColor=none;align=left;verticalAlign=top;spacingLeft=4;spacingRight=4;overflow=hidden;rotatable=0;points=[[0,0.5],[1,0.5]];portConstraint=eastwest;whiteSpace=wrap;html=1;" parent="GQ_BxSRCEvURSCjZHIDy-13" vertex="1">
          <mxGeometry y="26" width="140" height="64" as="geometry" />
        </mxCell>
        <mxCell id="F4fhkay_HacwlURnPDel-1" value="課題進捗" style="swimlane;fontStyle=0;childLayout=stackLayout;horizontal=1;startSize=26;fillColor=none;horizontalStack=0;resizeParent=1;resizeParentMax=0;resizeLast=0;collapsible=1;marginBottom=0;whiteSpace=wrap;html=1;align=center;" parent="1" vertex="1">
          <mxGeometry x="160" y="-495" width="130" height="140" as="geometry" />
        </mxCell>
        <mxCell id="F4fhkay_HacwlURnPDel-2" value="課題進捗ID&lt;br&gt;ユーザID&lt;br&gt;タスクID&lt;br&gt;名前&lt;br&gt;課題名&lt;br&gt;ステータス" style="text;strokeColor=none;fillColor=none;align=left;verticalAlign=top;spacingLeft=4;spacingRight=4;overflow=hidden;rotatable=0;points=[[0,0.5],[1,0.5]];portConstraint=eastwest;whiteSpace=wrap;html=1;" parent="F4fhkay_HacwlURnPDel-1" vertex="1">
          <mxGeometry y="26" width="130" height="114" as="geometry" />
        </mxCell>
        <mxCell id="RBhCMCIcIr0PxwT3AeKr-3" value="Relation" style="endArrow=open;html=1;endSize=12;startArrow=diamondThin;startSize=14;startFill=0;edgeStyle=orthogonalEdgeStyle;rounded=0;exitX=0;exitY=0.5;exitDx=0;exitDy=0;" parent="1" source="F4fhkay_HacwlURnPDel-2" edge="1">
          <mxGeometry x="-1" y="35" relative="1" as="geometry">
            <mxPoint x="450" y="-749" as="sourcePoint" />
            <mxPoint x="140" y="-588" as="targetPoint" />
            <mxPoint x="-30" y="17" as="offset" />
            <Array as="points">
              <mxPoint x="110" y="-412" />
              <mxPoint x="110" y="-588" />
            </Array>
          </mxGeometry>
        </mxCell>
        <mxCell id="RBhCMCIcIr0PxwT3AeKr-4" value="0..n" style="edgeLabel;resizable=0;html=1;align=left;verticalAlign=top;" parent="RBhCMCIcIr0PxwT3AeKr-3" connectable="0" vertex="1">
          <mxGeometry x="-1" relative="1" as="geometry">
            <mxPoint x="-20" as="offset" />
          </mxGeometry>
        </mxCell>
        <mxCell id="RBhCMCIcIr0PxwT3AeKr-5" value="1" style="edgeLabel;resizable=0;html=1;align=right;verticalAlign=top;" parent="RBhCMCIcIr0PxwT3AeKr-3" connectable="0" vertex="1">
          <mxGeometry x="1" relative="1" as="geometry">
            <mxPoint y="14" as="offset" />
          </mxGeometry>
        </mxCell>
        <mxCell id="F4fhkay_HacwlURnPDel-3" value="" style="endArrow=open;html=1;endSize=12;startArrow=diamondThin;startSize=14;startFill=0;edgeStyle=orthogonalEdgeStyle;rounded=0;exitX=1;exitY=0.5;exitDx=0;exitDy=0;entryX=0.5;entryY=1.011;entryDx=0;entryDy=0;entryPerimeter=0;" parent="1" source="F4fhkay_HacwlURnPDel-2" target="GQ_BxSRCEvURSCjZHIDy-2" edge="1">
          <mxGeometry relative="1" as="geometry">
            <mxPoint x="461" y="-723" as="sourcePoint" />
            <mxPoint x="330" y="-732" as="targetPoint" />
            <mxPoint as="offset" />
            <Array as="points">
              <mxPoint x="425" y="-412" />
              <mxPoint x="425" y="-570" />
              <mxPoint x="630" y="-570" />
            </Array>
          </mxGeometry>
        </mxCell>
        <mxCell id="F4fhkay_HacwlURnPDel-4" value="0..n" style="edgeLabel;resizable=0;html=1;align=left;verticalAlign=top;" parent="F4fhkay_HacwlURnPDel-3" connectable="0" vertex="1">
          <mxGeometry x="-1" relative="1" as="geometry" />
        </mxCell>
        <mxCell id="F4fhkay_HacwlURnPDel-5" value="1" style="edgeLabel;resizable=0;html=1;align=right;verticalAlign=top;" parent="F4fhkay_HacwlURnPDel-3" connectable="0" vertex="1">
          <mxGeometry x="1" relative="1" as="geometry">
            <mxPoint y="14" as="offset" />
          </mxGeometry>
        </mxCell>
        <mxCell id="_-Awk-GLsvXbPv-UONSr-2" value="&lt;h1 style=&quot;font-size: 14px;&quot;&gt;チーム集約&lt;/h1&gt;" style="text;html=1;strokeColor=none;fillColor=none;spacing=5;spacingTop=-20;whiteSpace=wrap;overflow=hidden;rounded=0;fontSize=14;" parent="1" vertex="1">
          <mxGeometry x="80" y="-1110" width="190" height="30" as="geometry" />
        </mxCell>
        <mxCell id="_-Awk-GLsvXbPv-UONSr-4" value="&lt;h1 style=&quot;font-size: 14px;&quot;&gt;ペア集約&lt;/h1&gt;" style="text;html=1;strokeColor=none;fillColor=none;spacing=5;spacingTop=-20;whiteSpace=wrap;overflow=hidden;rounded=0;fontSize=14;" parent="1" vertex="1">
          <mxGeometry x="80" y="-895" width="190" height="30" as="geometry" />
        </mxCell>
        <mxCell id="_-Awk-GLsvXbPv-UONSr-6" value="&lt;h1 style=&quot;font-size: 14px;&quot;&gt;課題集約&lt;/h1&gt;" style="text;html=1;strokeColor=none;fillColor=none;spacing=5;spacingTop=-20;whiteSpace=wrap;overflow=hidden;rounded=0;fontSize=14;" parent="1" vertex="1">
          <mxGeometry x="80" y="-690" width="190" height="30" as="geometry" />
        </mxCell>
        <mxCell id="_-Awk-GLsvXbPv-UONSr-9" value="&lt;h1 style=&quot;font-size: 14px;&quot;&gt;メンバー集約&lt;/h1&gt;" style="text;html=1;strokeColor=none;fillColor=none;spacing=5;spacingTop=-20;whiteSpace=wrap;overflow=hidden;rounded=0;fontSize=14;" parent="1" vertex="1">
          <mxGeometry x="510" y="-900" width="190" height="30" as="geometry" />
        </mxCell>
        <mxCell id="_-Awk-GLsvXbPv-UONSr-28" value="" style="endArrow=open;html=1;endSize=12;startArrow=diamondThin;startSize=14;startFill=0;edgeStyle=orthogonalEdgeStyle;rounded=0;entryX=0;entryY=0.5;entryDx=0;entryDy=0;" parent="1" source="GQ_BxSRCEvURSCjZHIDy-10" target="GQ_BxSRCEvURSCjZHIDy-12" edge="1">
          <mxGeometry relative="1" as="geometry">
            <mxPoint y="-810" as="sourcePoint" />
            <mxPoint x="100" y="-1020.5" as="targetPoint" />
            <Array as="points">
              <mxPoint x="30" y="-772" />
              <mxPoint x="30" y="-987" />
            </Array>
          </mxGeometry>
        </mxCell>
        <mxCell id="_-Awk-GLsvXbPv-UONSr-29" value="0..n" style="edgeLabel;resizable=0;html=1;align=left;verticalAlign=top;" parent="_-Awk-GLsvXbPv-UONSr-28" connectable="0" vertex="1">
          <mxGeometry x="-1" relative="1" as="geometry">
            <mxPoint x="-40" y="2" as="offset" />
          </mxGeometry>
        </mxCell>
        <mxCell id="_-Awk-GLsvXbPv-UONSr-30" value="1" style="edgeLabel;resizable=0;html=1;align=right;verticalAlign=top;" parent="_-Awk-GLsvXbPv-UONSr-28" connectable="0" vertex="1">
          <mxGeometry x="1" relative="1" as="geometry">
            <mxPoint x="-20" as="offset" />
          </mxGeometry>
        </mxCell>
        <mxCell id="_-Awk-GLsvXbPv-UONSr-31" value="" style="endArrow=open;html=1;endSize=12;startArrow=diamondThin;startSize=14;startFill=0;edgeStyle=orthogonalEdgeStyle;rounded=0;entryX=1;entryY=0.5;entryDx=0;entryDy=0;exitX=0;exitY=0.5;exitDx=0;exitDy=0;" parent="1" source="GQ_BxSRCEvURSCjZHIDy-2" target="GQ_BxSRCEvURSCjZHIDy-10" edge="1">
          <mxGeometry relative="1" as="geometry">
            <mxPoint x="400" y="-675.5" as="sourcePoint" />
            <mxPoint x="560" y="-675.5" as="targetPoint" />
            <Array as="points">
              <mxPoint x="280" y="-772" />
            </Array>
          </mxGeometry>
        </mxCell>
        <mxCell id="_-Awk-GLsvXbPv-UONSr-33" value="1" style="edgeLabel;resizable=0;html=1;align=right;verticalAlign=top;" parent="_-Awk-GLsvXbPv-UONSr-31" connectable="0" vertex="1">
          <mxGeometry x="1" relative="1" as="geometry">
            <mxPoint x="20" y="2" as="offset" />
          </mxGeometry>
        </mxCell>
        <mxCell id="EEhwz7VArtqCITe4Tplz-2" value="&lt;h1 style=&quot;font-size: 14px;&quot;&gt;課題進捗集約&lt;/h1&gt;" style="text;html=1;strokeColor=none;fillColor=none;spacing=5;spacingTop=-20;whiteSpace=wrap;overflow=hidden;rounded=0;fontSize=14;" parent="1" vertex="1">
          <mxGeometry x="80" y="-320" width="190" height="30" as="geometry" />
        </mxCell>
        <mxCell id="w49LGK5BrzQhAfHKFfca-1" value="0..n" style="edgeLabel;resizable=0;html=1;align=left;verticalAlign=top;" parent="1" connectable="0" vertex="1">
          <mxGeometry x="170" y="-775" as="geometry">
            <mxPoint x="349" y="23" as="offset" />
          </mxGeometry>
        </mxCell>
      </root>
    </mxGraphModel>
  </diagram>
  <diagram id="TNz4s0Rb14Wo9a-OYG2d" name="ページ2">
    <mxGraphModel dx="1194" dy="674" grid="1" gridSize="10" guides="1" tooltips="1" connect="1" arrows="1" fold="1" page="1" pageScale="1" pageWidth="827" pageHeight="1169" math="0" shadow="0">
      <root>
        <mxCell id="0" />
        <mxCell id="1" parent="0" />
      </root>
    </mxGraphModel>
  </diagram>
</mxfile>
